<svg width="24" height="20" fill="none" xmlns="http://www.w3.org/2000/svg"><path d="m1 6 1.499.26.694 8.266c.055.675.62 1.194 1.297 1.191h7.86a1.297 1.297 0 0 0 1.286-1.114l.684-4.725a.967.967 0 0 0-.818-1.094c-.046-.007-10.763-.01-10.763-.01M9.196 11.437h1.998" stroke="#000" stroke-width="1.5" stroke-linecap="round" stroke-linejoin="round"/><path fill-rule="evenodd" clip-rule="evenodd" d="M4.173 18.215a.392.392 0 1 1 0 .784.392.392 0 0 1 0-.784ZM12.301 18.215a.393.393 0 1 1 0 .785.393.393 0 0 1 0-.785Z" fill="#000" stroke="#000" stroke-width="1.5" stroke-linecap="round" stroke-linejoin="round"/><circle cx="17.5" cy="6.5" r="6.5" fill="#76A713"/><path d="M19.136 8.312c-.384.528-.923.792-1.616.792-.693 0-1.235-.264-1.624-.792-.384-.528-.576-1.232-.576-2.112 0-.88.192-1.584.576-2.112.39-.528.93-.792 1.624-.792.693 0 1.232.264 1.616.792.39.528.584 1.232.584 2.112 0 .88-.195 1.584-.584 2.112Zm-1.616-.104c.416 0 .733-.173.952-.52.219-.347.328-.843.328-1.488s-.11-1.141-.328-1.488a1.058 1.058 0 0 0-.952-.52c-.41 0-.728.173-.952.52-.219.347-.328.843-.328 1.488s.11 1.141.328 1.488c.224.347.541.52.952.52Z" fill="#fff"/></svg>